name GIL12_slow4EmgEnv.mot
datacolumns 51
datarows 4
range 0.94629633 0.94907409
endheader
                time	   rect_fem_l_emgRec	   rect_fem_l_emgEnv	   rect_fem_l_emgAve	   rect_fem_l_emgSDp	   rect_fem_l_emgSDm	   rect_fem_r_emgRec	   rect_fem_r_emgEnv	   rect_fem_r_emgAve	   rect_fem_r_emgSDp	   rect_fem_r_emgSDm	   med_hams_l_emgRec	   med_hams_l_emgEnv	   med_hams_l_emgAve	   med_hams_l_emgSDp	   med_hams_l_emgSDm	   med_hams_r_emgRec	   med_hams_r_emgEnv	   med_hams_r_emgAve	   med_hams_r_emgSDp	   med_hams_r_emgSDm	   lat_hams_l_emgRec	   lat_hams_l_emgEnv	   lat_hams_l_emgAve	   lat_hams_l_emgSDp	   lat_hams_l_emgSDm	   lat_hams_r_emgRec	   lat_hams_r_emgEnv	   lat_hams_r_emgAve	   lat_hams_r_emgSDp	   lat_hams_r_emgSDm	    tib_ant_l_emgRec	    tib_ant_l_emgEnv	    tib_ant_l_emgAve	    tib_ant_l_emgSDp	    tib_ant_l_emgSDm	    tib_ant_r_emgRec	    tib_ant_r_emgEnv	    tib_ant_r_emgAve	    tib_ant_r_emgSDp	    tib_ant_r_emgSDm	    gas_sol_l_emgRec	    gas_sol_l_emgEnv	    gas_sol_l_emgAve	    gas_sol_l_emgSDp	    gas_sol_l_emgSDm	    gas_sol_r_emgRec	    gas_sol_r_emgEnv	    gas_sol_r_emgAve	    gas_sol_r_emgSDp	    gas_sol_r_emgSDm	
          0.94629633	          0.13952644	          0.27970755	          0.22764733	          0.28292729	          0.17236738	          0.01611941	          0.04830165	          0.11587247	          0.23573133	         -0.00398640	          0.05225639	          0.40537883	          0.28128162	          0.36164341	          0.20091983	          0.05041374	          0.47954368	          0.45146099	          0.65472627	          0.24819571	          0.00281721	          0.02381282	          0.19156744	          0.29109825	          0.09203662	          0.00485642	          0.07323779	          0.21086733	          0.50283612	         -0.08110146	          0.01199469	          0.51273384	          0.27924359	          0.53515783	          0.02332935	          0.00258397	          0.01247200	          0.19783509	          0.31019233	          0.08547784	          0.01777480	          0.05025151	          0.07780610	          0.12286326	          0.03274895	          0.00881026	          0.03300684	         -0.01605508	         -0.00233991	         -0.02977025	
          0.94722223	          0.17227607	          0.27876070	          0.22657564	          0.28173486	          0.17141643	          0.03267179	          0.04796658	          0.11449579	          0.23288773	         -0.00389615	          0.05897176	          0.40350513	          0.28059742	          0.36048677	          0.20070807	          0.00377953	          0.48955482	          0.45258379	          0.65692280	          0.24824478	          0.00502417	          0.02408611	          0.19147077	          0.29123580	          0.09170575	          0.00262787	          0.07373636	          0.21007425	          0.50051069	         -0.08036220	          0.15506354	          0.52054802	          0.27877074	          0.53523871	          0.02230278	          0.00246166	          0.01433978	          0.20120992	          0.31477624	          0.08764359	          0.02755913	          0.05130669	          0.07840222	          0.12398314	          0.03282131	          0.01079812	          0.03289149	         -0.01585621	         -0.00234240	         -0.02937002	
          0.94814819	          0.13672788	          0.27777838	          0.22550169	          0.28054916	          0.17045421	          0.03474583	          0.04763146	          0.11311759	          0.23003617	         -0.00380099	          0.05838376	          0.40158963	          0.27991152	          0.35933486	          0.20048817	          0.01473320	          0.49967717	          0.45367306	          0.65907218	          0.24827395	          0.01182037	          0.02436902	          0.19137926	          0.29138540	          0.09137312	          0.02557161	          0.07424412	          0.20927182	          0.49816021	         -0.07961658	          0.06714188	          0.52861171	          0.27830154	          0.53531599	          0.02128708	          0.00315346	          0.01633404	          0.20459902	          0.31936825	          0.08982980	          0.06156789	          0.05240047	          0.07900523	          0.12511405	          0.03289640	          0.01012077	          0.03276658	         -0.01563240	         -0.00231090	         -0.02895391	
          0.94907409	          0.05140256	          0.27676439	          0.22442561	          0.27937028	          0.16948095	          0.02992808	          0.04729611	          0.11173853	          0.22717802	         -0.00370096	          0.03848834	          0.39963856	          0.27922434	          0.35818819	          0.20026048	          0.05331713	          0.50989371	          0.45472795	          0.66117299	          0.24828291	          0.01458868	          0.02465991	          0.19129294	          0.29154707	          0.09103881	          0.04234451	          0.07475929	          0.20846035	          0.49578543	         -0.07886474	          0.28264208	          0.53691509	          0.27783594	          0.53538933	          0.02028254	          0.00400596	          0.01845687	          0.20800096	          0.32396642	          0.09203549	          0.03214287	          0.05353089	          0.07961499	          0.12625576	          0.03297422	          0.00430099	          0.03263351	         -0.01538404	         -0.00224556	         -0.02852252	
